<svg width="2954" height="1313" viewBox="0 0 2954 1313" fill="none" xmlns="http://www.w3.org/2000/svg">
<g filter="url(#filter0_i_54_2)">
<path d="M246.104 656.278C278.423 656.278 310.426 662.644 340.284 675.012C370.143 687.38 397.273 705.508 420.126 728.36C442.979 751.213 461.107 778.343 473.475 808.202C485.842 838.061 492.208 870.063 492.208 902.382C492.208 934.701 485.842 966.704 473.475 996.562C461.107 1026.42 442.979 1053.55 420.126 1076.4C397.273 1099.26 370.143 1117.39 340.284 1129.75C310.426 1142.12 278.423 1148.49 246.104 1148.49V1312.56H0V656.278H246.104ZM657.792 656.282C689.596 656.478 721.066 662.837 750.458 675.012C780.317 687.38 807.447 705.508 830.3 728.36C853.153 751.213 871.281 778.344 883.648 808.202C896.016 838.061 902.382 870.063 902.382 902.382C902.382 934.701 896.016 966.704 883.648 996.562C871.281 1026.42 853.153 1053.55 830.3 1076.4C816.449 1090.26 801.026 1102.37 784.378 1112.52L984.417 1312.56H492.208V656.278H656.277L657.792 656.282ZM1476.62 328.139H1804.76V656.278H1681.71L1886.8 861.365V656.278H2132.9V1312.56H2009.85L1804.76 1107.47L1804.76 1312.56H1558.66V984.417C1558.66 1027.51 1550.17 1070.18 1533.68 1109.99C1517.19 1149.8 1493.02 1185.98 1462.55 1216.45C1432.08 1246.92 1395.91 1271.09 1356.09 1287.58C1316.28 1304.07 1273.61 1312.56 1230.52 1312.56C1187.43 1312.56 1144.76 1304.07 1104.95 1287.58C1065.14 1271.09 1028.96 1246.92 998.491 1216.45C968.021 1185.98 943.85 1149.8 927.359 1109.99C910.869 1070.18 902.382 1027.51 902.382 984.417V656.278H1148.49V0H1476.62V328.139ZM2403.03 680.306C2435.35 680.306 2467.36 686.671 2497.21 699.039C2527.07 711.407 2554.2 729.535 2577.06 752.388C2599.91 775.241 2618.04 802.371 2630.41 832.229C2642.77 862.088 2649.14 894.09 2649.14 926.409C2649.14 958.728 2642.77 990.731 2630.41 1020.59C2618.04 1050.45 2599.91 1077.58 2577.06 1100.43L2693.07 1216.45C2662.6 1246.92 2626.43 1271.09 2586.62 1287.58C2546.8 1304.07 2504.13 1312.56 2461.04 1312.56C2417.95 1312.56 2375.28 1304.07 2335.47 1287.58C2295.66 1271.09 2259.48 1246.92 2229.01 1216.45C2198.54 1185.98 2174.37 1149.8 2157.88 1109.99C2141.39 1070.18 2132.9 1027.51 2132.9 984.417C2132.9 941.325 2141.39 898.655 2157.88 858.844C2174.37 819.032 2198.54 782.858 2229.01 752.388L2230.09 751.32C2252.71 728.97 2279.46 711.214 2308.85 699.039C2338.71 686.671 2370.72 680.306 2403.03 680.306ZM2953.25 1312.56H2694.84V1148.49H2953.25V1312.56ZM2626.63 0.00488281C2658.43 0.200648 2689.9 6.55882 2719.29 18.7334C2749.15 31.1013 2776.28 49.2292 2799.13 72.082C2821.99 94.9348 2840.11 122.065 2852.48 151.924C2864.85 181.783 2871.21 213.786 2871.21 246.104C2871.21 278.423 2864.85 310.426 2852.48 340.284C2840.11 370.143 2821.99 397.273 2799.13 420.126C2785.28 433.976 2769.86 446.09 2753.21 456.239L2953.25 656.278V1066.45H2694.84V656.278H2461.04V0H2625.11L2626.63 0.00488281ZM492.208 656.278H328.139C285.047 656.278 242.377 647.79 202.565 631.3C162.754 614.809 126.58 590.638 96.1094 560.168C65.639 529.698 41.469 493.523 24.9785 453.712C8.48805 413.9 -1.8836e-06 371.23 0 328.139C4.3948e-05 285.047 8.48803 242.377 24.9785 202.565C41.469 162.754 65.639 126.58 96.1094 96.1094C126.58 65.6389 162.754 41.469 202.565 24.9785C242.377 8.48802 285.047 2.30328e-05 328.139 0H492.208V656.278ZM820.348 0C1001.57 0.000252041 1148.49 146.913 1148.49 328.139C1148.49 509.365 1001.57 656.278 820.348 656.278C639.122 656.278 492.208 509.365 492.208 328.139C492.208 146.913 639.122 0 820.348 0ZM2132.9 0C2314.13 0 2461.04 146.913 2461.04 328.139C2461.04 509.365 2314.13 656.278 2132.9 656.278C1951.68 656.278 1804.76 509.365 1804.76 328.139C1804.76 146.913 1951.68 0.000189258 2132.9 0Z" fill="#EEEEEE"/>
</g>
<defs>
<filter id="filter0_i_54_2" x="0" y="0" width="3017.25" height="1376.56" filterUnits="userSpaceOnUse" color-interpolation-filters="sRGB">
<feFlood flood-opacity="0" result="BackgroundImageFix"/>
<feBlend mode="normal" in="SourceGraphic" in2="BackgroundImageFix" result="shape"/>
<feColorMatrix in="SourceAlpha" type="matrix" values="0 0 0 0 0 0 0 0 0 0 0 0 0 0 0 0 0 0 127 0" result="hardAlpha"/>
<feMorphology radius="32" operator="erode" in="SourceAlpha" result="effect1_innerShadow_54_2"/>
<feOffset dx="64" dy="64"/>
<feGaussianBlur stdDeviation="32"/>
<feComposite in2="hardAlpha" operator="arithmetic" k2="-1" k3="1"/>
<feColorMatrix type="matrix" values="0 0 0 0 0.168627 0 0 0 0 0.168627 0 0 0 0 0.168627 0 0 0 0.4 0"/>
<feBlend mode="normal" in2="shape" result="effect1_innerShadow_54_2"/>
</filter>
</defs>
</svg>
