<svg width="1858" height="481" viewBox="0 0 1858 481" fill="none" xmlns="http://www.w3.org/2000/svg">
<path d="M0 320H160V480H0V320Z" fill="#EEEEEE"/>
<path d="M160 0H320V160H160V0Z" fill="#EEEEEE"/>
<path d="M1152 240C1152 372.548 1044.55 480 912 480C779.452 480 672 372.548 672 240C672 107.452 779.452 0 912 0C1044.55 0 1152 107.452 1152 240Z" fill="#EEEEEE"/>
<path d="M1152 0H1272V480H1152V0Z" fill="#EEEEEE"/>
<path d="M1272 240L1512 480H1272V240Z" fill="#EEEEEE"/>
<path d="M1272 0C1295.64 0 1319.04 4.65584 1340.88 13.7017C1362.72 22.7475 1382.56 36.0062 1399.28 52.7208C1415.99 69.4353 1429.25 89.2784 1438.3 111.117C1447.34 132.956 1452 156.362 1452 180C1452 203.638 1447.34 227.044 1438.3 248.883C1429.25 270.722 1415.99 290.565 1399.28 307.279C1382.56 323.994 1362.72 337.252 1340.88 346.298C1319.04 355.344 1295.64 360 1272 360V0Z" fill="#EEEEEE"/>
<path d="M160 0C138.989 -2.5056e-07 118.183 4.13852 98.7706 12.1793C79.3586 20.22 61.7203 32.0055 46.8629 46.8629C32.0055 61.7203 20.22 79.3586 12.1793 98.7706C4.13852 118.183 -6.67882e-07 138.989 0 160C6.67882e-07 181.011 4.13852 201.817 12.1793 221.229C20.22 240.641 32.0055 258.28 46.8629 273.137C61.7203 287.994 79.3586 299.78 98.7707 307.821C118.183 315.861 138.989 320 160 320V160V0Z" fill="#EEEEEE"/>
<path d="M160 480C181.011 480 201.817 475.861 221.229 467.821C240.641 459.78 258.28 447.994 273.137 433.137C287.994 418.28 299.78 400.641 307.821 381.229C315.861 361.817 320 341.011 320 320C320 298.989 315.861 278.183 307.821 258.771C299.78 239.359 287.994 221.72 273.137 206.863C258.28 192.006 240.641 180.22 221.229 172.179C201.817 164.139 181.011 160 160 160V320V480Z" fill="#EEEEEE"/>
<path d="M1518.29 70.7208C1496.01 93.0068 1478.33 119.464 1466.27 148.582C1454.21 177.701 1448 208.909 1448 240.426C1448 271.944 1454.21 303.152 1466.27 332.27C1478.33 361.389 1496.01 387.846 1518.29 410.132C1540.58 432.418 1567.04 450.096 1596.16 462.157C1625.27 474.219 1656.48 480.426 1688 480.426C1719.52 480.426 1750.73 474.219 1779.84 462.157C1808.96 450.096 1835.42 432.418 1857.71 410.132L1518.29 70.7208Z" fill="#EEEEEE"/>
<path d="M1518.29 70.7208C1535.01 54.0062 1554.85 40.7475 1576.69 31.7017C1598.53 22.6559 1621.94 18 1645.57 18C1669.21 18 1692.62 22.6558 1714.46 31.7017C1736.3 40.7475 1756.14 54.0063 1772.85 70.7208C1789.57 87.4353 1802.83 107.278 1811.87 129.117C1820.92 150.956 1825.57 174.362 1825.57 198C1825.57 221.638 1820.92 245.044 1811.87 266.883C1802.83 288.722 1789.57 308.565 1772.85 325.279L1518.29 70.7208Z" fill="#EEEEEE"/>
<path d="M552 0H672V480H552V0Z" fill="#EEEEEE"/>
<path d="M552 480C520.483 480 489.274 473.792 460.156 461.731C431.038 449.67 404.58 431.992 382.294 409.706C360.008 387.42 342.33 360.962 330.269 331.844C318.208 302.726 312 271.517 312 240C312 208.483 318.208 177.274 330.269 148.156C342.33 119.038 360.008 92.5804 382.294 70.2944C404.58 48.0083 431.038 30.33 460.156 18.2689C489.274 6.20778 520.483 -2.75533e-06 552 0V480Z" fill="#EEEEEE"/>
</svg>
